<?xml version="1.0" encoding="UTF-8"?>
<svg version="1.1" xmlns="http://www.w3.org/2000/svg" width="32" height="32">
<path d="M0 0 C10.56 0 21.12 0 32 0 C32 10.56 32 21.12 32 32 C21.44 32 10.88 32 0 32 C0 21.44 0 10.88 0 0 Z " fill="#121022" transform="translate(0,0)"/>
<path d="M0 0 C2.42192923 3.3301527 2.11987238 7.08378426 1.5 11.0625 C0.51 12.5475 0.51 12.5475 -0.5 14.0625 C-1.16 14.0625 -1.82 14.0625 -2.5 14.0625 C-2.5 14.7225 -2.5 15.3825 -2.5 16.0625 C-9.72330097 16.66444175 -9.72330097 16.66444175 -13 14.125 C-15.01377062 10.01355165 -15.33196998 6.56033769 -14.5 2.0625 C-11.18257143 -2.49896429 -4.81407504 -1.80527814 0 0 Z " fill="#665AE0" transform="translate(22.5,8.9375)"/>
<path d="M0 0 C3.125 0.25 3.125 0.25 5 1.75 C5.37125 2.245 5.7425 2.74 6.125 3.25 C4.75345496 6.20409701 3.13636276 8.69008376 1.125 11.25 C-0.875 10.25 -2.875 9.25 -4.875 8.25 C-3.86780576 0.33633094 -3.86780576 0.33633094 0 0 Z " fill="#9C91FB" transform="translate(14.875,8.75)"/>
<path d="M0 0 C0.33 0 0.66 0 1 0 C1.33 2.97 1.66 5.94 2 9 C5.49384279 10.16461426 8.33655389 10.13568319 12 10 C13.58272601 8.41727399 13.34735747 6.61965997 13.5625 4.4375 C13.64628906 3.61121094 13.73007812 2.78492188 13.81640625 1.93359375 C13.87699219 1.29550781 13.93757813 0.65742188 14 0 C14.66 0 15.32 0 16 0 C16.05422947 1.4370809 16.09289723 2.87475462 16.125 4.3125 C16.14820312 5.11300781 16.17140625 5.91351563 16.1953125 6.73828125 C16 9 16 9 14 12 C13.34 12 12.68 12 12 12 C12 12.66 12 13.32 12 14 C4.77669903 14.60194175 4.77669903 14.60194175 1.5 12.0625 C-0.5147987 7.94895266 -0.3526999 4.49692378 0 0 Z " fill="#453AAD" transform="translate(8,11)"/>
<path d="M0 0 C2 2 2 2 3 4 C2.67 4.66 2.34 5.32 2 6 C1.34 5.34 0.68 4.68 0 4 C-5.88336903 3.49033587 -5.88336903 3.49033587 -11 6 C-11.57993699 8.19454681 -11.57993699 8.19454681 -11.6875 10.625 C-11.78611328 11.85089844 -11.78611328 11.85089844 -11.88671875 13.1015625 C-11.94279297 14.04128906 -11.94279297 14.04128906 -12 15 C-12.33 15 -12.66 15 -13 15 C-13.72030197 11.62767713 -14.19502638 8.45249404 -14 5 C-9.9346122 -0.21203564 -6.43392051 -0.94926696 0 0 Z " fill="#25204F" transform="translate(20,5)"/>
<path d="M0 0 C6.0546875 -0.1953125 6.0546875 -0.1953125 8 0 C10 2 10 2 10.265625 4.3125 C10.26046875 5.199375 10.2553125 6.08625 10.25 7 C10.25515625 7.886875 10.2603125 8.77375 10.265625 9.6875 C10 12 10 12 8 14 C4.375 14.125 4.375 14.125 1 14 C1 13.67 1 13.34 1 13 C1.969375 12.690625 2.93875 12.38125 3.9375 12.0625 C6.84065792 11.30476658 6.84065792 11.30476658 8 10 C8.25005386 7.04182893 8.25005386 7.04182893 8 4 C5.4345406 1.4345406 3.52313332 1.45953913 0 1 C0 0.67 0 0.34 0 0 Z " fill="#594CD1" transform="translate(12,8)"/>
<path d="M0 0 C0.66 0 1.32 0 2 0 C2.05422947 1.4370809 2.09289723 2.87475462 2.125 4.3125 C2.14820313 5.11300781 2.17140625 5.91351563 2.1953125 6.73828125 C2 9 2 9 0 12 C-0.66 12 -1.32 12 -2 12 C-1.34 8.04 -0.68 4.08 0 0 Z " fill="#493DB8" transform="translate(22,11)"/>
<path d="M0 0 C3.3125 -0.25 3.3125 -0.25 7 0 C8.9375 2 8.9375 2 10 4 C9.67 4.66 9.34 5.32 9 6 C8.46375 5.525625 7.9275 5.05125 7.375 4.5625 C4.57157164 2.71813924 2.30379742 2.37543153 -1 2 C-0.67 1.34 -0.34 0.68 0 0 Z " fill="#1F1B40" transform="translate(13,5)"/>
<path d="M0 0 C0.625 1.875 0.625 1.875 1 4 C0.34 4.66 -0.32 5.32 -1 6 C-1.99 6 -2.98 6 -4 6 C-2.84826645 3.53199953 -1.95216435 1.95216435 0 0 Z " fill="#7064E5" transform="translate(20,14)"/>
</svg>
